<svg version="1.2" xmlns="http://www.w3.org/2000/svg" viewBox="0 0 500 500" width="500" height="500">
	<title>Logo Fondolhaca</title>
	<style>
		.c1 { 
    		fill: rgb(22, 172, 209); 
		} 
		.f1 { 
			fill: none;
			stroke: rgb(235, 31, 133);
			stroke-width: 16;
		}
		.d1 {
			fill: none;
			stroke: rgb(146, 45, 197);
			stroke-width: 16;
		}
	</style>
	<path id="C" fill-rule="evenodd" class="c1" d="m251.5 286.7q4.8 0 9.4-0.6l29.9 26.1q-18.8 7.2-39.3 7.2-22.9 0-43.7-8.9-13.9-6-25.3-14.7l24.1-23q6.4 4.4 13.9 7.6 14.8 6.2 31 6.3zm-66.7-122.9q-13 20-13 43.4 0 16.2 6.4 30.9 2.8 6.6 6.5 12.3l-24 22.9q-7.3-10.2-12.6-22.5-8.9-20.8-8.9-43.6 0-22.8 8.9-43.6 8.9-20.8 23.9-35.8 5.2-5.2 11.1-9.7l27.2 24.9 107.4 108q13.3-19.7 13.3-43.8 0-21.6-10.6-39.9-1-1.6-1.9-3.1l23-24.1q7.7 10.7 13.2 23.5 8.9 20.8 8.9 43.6 0 22.8-8.9 43.6-8.9 20.8-23.9 35.8-5.1 5.1-10.8 9.5l-26.3-22.9zm66.7-68.8q22.8 0 43.6 8.9 13.3 5.7 24.3 14l-22.7 23.8q-2.6-1.8-5.4-3.3-18.3-10.7-39.8-10.7-5.6 0-10.9 0.7l-28.6-26.2q18.9-7.2 39.5-7.2z"/>
	<path id="F3" class="f1" d="m38 224.9l4.2-4.2 190.5 190.5-4.2 4.2z"/>
	<path id="F2" class="f1" d="m226.6 227.4l2 2-88.4 88.4-2-1.9z"/>
	<path id="F1" class="f1" d="m156.7 106.8l2.4 2.4-106 105.9-2.4-2.3z"/>
	<path id="D3" class="d1" d="m353.8 103.6l1.5 1.5-65.8 65.7-1.4-1.4z"/>
	<path id="D2" class="d1" d="m469 220l4.2 4.2-189.9 190-4.2-4.2z"/>
	<path id="D1" class="d1" d="m361.7 116.6l2.4-2.3 107.9 107.9-2.4 2.4z"/>
</svg>